# xmcd CD database file
#
# Track frame offsets:
#	182
#	21125
#	40460
#	57477
#	76102
#	95950
#	113612
#	132902
#	148605
#	167852
#	183017
#
# Disc length: 2688 seconds
#
# Revision: 2
# Processed by: cddbd v1.5.1PL0 Copyright (c) Steve Scherf et al.
# Submitted via: CDex 1.51
#
DISCID=920a7e0b
DTITLE=Lake - No time for heroes
DYEAR=1984
DGENRE=Blues
TTITLE0=Continental vagabond
TTITLE1=Dreams in the night
TTITLE2=Tell me why
TTITLE3=Heroes
TTITLE4=Never say never
TTITLE5=Instrumental No.1
TTITLE6=Johnny don't go
TTITLE7=Lorraine
TTITLE8=Scotsman
TTITLE9=Lady Divine
TTITLE10=Fight it together
EXTD=YEAR: 1984
EXTT0=
EXTT1=
EXTT2=
EXTT3=
EXTT4=
EXTT5=
EXTT6=
EXTT7=
EXTT8=
EXTT9=
EXTT10=
PLAYORDER=
